# xmcd
#
# Track frame offsets:
#	150
#	20805
#	43531
#	64896
#	86358
#	113091
#	138213
#	160416
#	189298
#	205052
#	230924
#	248488
#	270651
#	292009
#	319998
#	336309
#
# Disc length: 4774 seconds
#
# Revision: 4
# Processed by: cddbd v1.5.2PL0 Copyright (c) Steve Scherf et al.
# Submitted via: EZCDAudioConverter 6.0.0.1
#
DISCID=ea12a410
DTITLE=Various Artist - Akella Presents - vol.72 - Black Pure Blues  CD2
DYEAR=2016
DGENRE=Blues
TTITLE0=Melvin Taylor - Help The Poor
TTITLE1=B.B. King - The Thrill Is Gone
TTITLE2=Larry Garner - A Driving Woman
TTITLE3=Preston Shannon - Jail Of Love
TTITLE4=Johnny 'Yard Dog' Jones - Anything But Without You
TTITLE5=Tad Robinson - Long Way Home
TTITLE6=Pinetop Perkins - Who's Old Muddy Shoes
TTITLE7=Dennis Jones - Mr Right
TTITLE8=Jimmy Burns - Big Money Problem
TTITLE9=John Primer - Corrine
TTITLE10=Bobby Jones - She's The One
TTITLE11=Larry Mccray - Born To Play The Blues
TTITLE12=Sonny Rodgers - Black Nights Are Falling
TTITLE13=Maurice John Vaughn - Computer Took My Job
TTITLE14=The Mannish Boys - California Blues
TTITLE15=Kenny Neal - Another Man's Cologne
EXTD=
EXTT0=
EXTT1=
EXTT2=
EXTT3=
EXTT4=
EXTT5=
EXTT6=
EXTT7=
EXTT8=
EXTT9=
EXTT10=
EXTT11=
EXTT12=
EXTT13=
EXTT14=
EXTT15=
PLAYORDER=
